<svg xmlns="http://www.w3.org/2000/svg" viewBox="0 0 48 48"><defs><style>.cls-1,.cls-2{fill:none;}.cls-2{stroke:#000;stroke-linecap:round;stroke-linejoin:round;stroke-width:2px;}</style></defs><title>cart_24</title><g id="レイヤー_2" data-name="レイヤー 2"><g id="Rectangle"><rect class="cls-1" width="48" height="48"/></g><g id="icon_data"><path class="cls-2" d="M34,31.59a4.09,4.09,0,0,1,2,6.45,2,2,0,0,1-.5.5,4.12,4.12,0,0,1-6.42-1.78,1.93,1.93,0,0,0-1.8-1.35H19.51a1.93,1.93,0,0,0-1.8,1.35,4.12,4.12,0,0,1-6.42,1.78,2,2,0,0,1-.5-.5,4.12,4.12,0,0,1,1-6,1.85,1.85,0,0,0,.81-1.9L8.71,9A1.89,1.89,0,0,0,6.86,7.41H5.42"/><path class="cls-2" d="M10.08,16.48l28.33-.06a1.87,1.87,0,0,1,1.69,2.7l-2.22,4.55a1.87,1.87,0,0,1-1.19,1L19.42,29.41"/></g></g></svg>